<svg width="50" height="39" viewBox="0 0 50 39" fill="none" xmlns="http://www.w3.org/2000/svg">
<path fill-rule="evenodd" clip-rule="evenodd" d="M50 2.77778C50 3.51449 49.7073 4.22103 49.1864 4.74196C48.6655 5.2629 47.9589 5.55556 47.2222 5.55556H2.77778C2.04107 5.55556 1.33453 5.2629 0.813592 4.74196C0.292658 4.22103 0 3.51449 0 2.77778C0 2.04107 0.292658 1.33453 0.813592 0.813592C1.33453 0.292658 2.04107 0 2.77778 0H47.2222C47.9589 0 48.6655 0.292658 49.1864 0.813592C49.7073 1.33453 50 2.04107 50 2.77778ZM50 19.4444C50 20.1812 49.7073 20.8877 49.1864 21.4086C48.6655 21.9296 47.9589 22.2222 47.2222 22.2222H2.77778C2.04107 22.2222 1.33453 21.9296 0.813592 21.4086C0.292658 20.8877 0 20.1812 0 19.4444C0 18.7077 0.292658 18.0012 0.813592 17.4803C1.33453 16.9593 2.04107 16.6667 2.77778 16.6667H47.2222C47.9589 16.6667 48.6655 16.9593 49.1864 17.4803C49.7073 18.0012 50 18.7077 50 19.4444ZM47.2222 38.8889C47.9589 38.8889 48.6655 38.5962 49.1864 38.0753C49.7073 37.5544 50 36.8478 50 36.1111C50 35.3744 49.7073 34.6679 49.1864 34.1469C48.6655 33.626 47.9589 33.3333 47.2222 33.3333H2.77778C2.04107 33.3333 1.33453 33.626 0.813592 34.1469C0.292658 34.6679 0 35.3744 0 36.1111C0 36.8478 0.292658 37.5544 0.813592 38.0753C1.33453 38.5962 2.04107 38.8889 2.77778 38.8889H47.2222Z" fill="#000"/>
</svg>
