<svg width="40" height="40" viewBox="0 0 40 40" fill="none" xmlns="http://www.w3.org/2000/svg">
<rect x="5.6001" y="6.40002" width="28" height="28" fill="white"/>
<path d="M9.52381 0C4.27492 0 0 4.27492 0 9.52381V30.4762C0 35.7251 4.27492 40 9.52381 40H30.4762C35.7251 40 40 35.7251 40 30.4762V9.52381C40 4.27492 35.7251 0 30.4762 0H9.52381ZM13.3389 7.65997C13.937 7.68568 14.4863 8.02266 14.8177 8.53981C15.1949 9.12838 15.7801 10.0418 16.542 11.2333C17.2373 12.3199 17.2858 13.7234 16.6648 14.8568L15.2697 16.8415C14.8926 17.3787 14.8174 18.0662 15.0707 18.6719C15.465 19.6147 16.2293 21.0638 17.5874 22.4219C18.9455 23.78 20.3946 24.5443 21.3374 24.9386C21.9431 25.1919 22.6306 25.1167 23.1678 24.7396L25.1525 23.3445C26.2859 22.7235 27.6894 22.773 28.776 23.4673C29.9675 24.2292 30.8809 24.8144 31.4695 25.1916C31.9866 25.523 32.3236 26.0723 32.3493 26.6704C32.496 30.0647 29.8663 31.4397 29.1016 31.4397C28.572 31.4397 22.206 32.1633 15.026 24.9833C7.84604 17.8033 8.56957 11.4373 8.56957 10.9077C8.56957 10.143 9.94463 7.5133 13.3389 7.65997Z" fill="#00C851"/>
</svg>
